<?xml version="1.0" encoding="UTF-8" standalone="no"?>
<!-- Created with Inkscape (http://www.inkscape.org/) -->

<svg
   xmlns:dc="http://purl.org/dc/elements/1.1/"
   xmlns:cc="http://creativecommons.org/ns#"
   xmlns:rdf="http://www.w3.org/1999/02/22-rdf-syntax-ns#"
   xmlns:svg="http://www.w3.org/2000/svg"
   xmlns="http://www.w3.org/2000/svg"
   xmlns:sodipodi="http://sodipodi.sourceforge.net/DTD/sodipodi-0.dtd"
   xmlns:inkscape="http://www.inkscape.org/namespaces/inkscape"
   width="640"
   height="240"
   id="svg2985"
   version="1.1"
   inkscape:version="0.48.4 r9939"
   sodipodi:docname="logo.svg">
  <defs
     id="defs2987">
    <filter
       id="filter3921"
       inkscape:label="Blotting paper"
       inkscape:menu="Textures"
       inkscape:menu-tooltip="Inkblot on blotting paper"
       height="1.3"
       y="-0.15"
       width="1.3"
       x="-0.15"
       color-interpolation-filters="sRGB">
      <feGaussianBlur
         id="feGaussianBlur3923"
         stdDeviation="3"
         in="SourceGraphic"
         result="result1" />
      <feTurbulence
         id="feTurbulence3925"
         type="turbulence"
         baseFrequency="0.05"
         numOctaves="5"
         result="result0" />
      <feDisplacementMap
         id="feDisplacementMap3927"
         in2="result0"
         in="result1"
         xChannelSelector="R"
         yChannelSelector="G"
         scale="3"
         result="result2" />
      <feBlend
         id="feBlend3929"
         in2="result2"
         result="result5"
         in="result2"
         mode="multiply" />
      <feGaussianBlur
         id="feGaussianBlur3931"
         stdDeviation="5"
         in="result2"
         result="result4" />
      <feComposite
         id="feComposite3933"
         in2="result5"
         operator="arithmetic"
         in="result4"
         k2="0.25"
         k3="1"
         k1="1"
         result="result6" />
      <feComposite
         id="feComposite3935"
         in2="result2"
         operator="in" />
    </filter>
    <filter
       id="filter3921-5"
       inkscape:label="Blotting paper"
       inkscape:menu="Textures"
       inkscape:menu-tooltip="Inkblot on blotting paper"
       height="1.3"
       y="-0.15000001"
       width="1.3"
       x="-0.15000001"
       color-interpolation-filters="sRGB">
      <feGaussianBlur
         id="feGaussianBlur3923-5"
         stdDeviation="3"
         in="SourceGraphic"
         result="result1" />
      <feTurbulence
         id="feTurbulence3925-1"
         type="turbulence"
         baseFrequency="0.05"
         numOctaves="5"
         result="result0" />
      <feDisplacementMap
         id="feDisplacementMap3927-7"
         in2="result0"
         in="result1"
         xChannelSelector="R"
         yChannelSelector="G"
         scale="3"
         result="result2" />
      <feBlend
         id="feBlend3929-1"
         in2="result2"
         result="result5"
         in="result2"
         mode="multiply" />
      <feGaussianBlur
         id="feGaussianBlur3931-1"
         stdDeviation="5"
         in="result2"
         result="result4" />
      <feComposite
         k4="0"
         id="feComposite3933-5"
         in2="result5"
         operator="arithmetic"
         in="result4"
         k2="0.25"
         k3="1"
         k1="1"
         result="result6" />
      <feComposite
         id="feComposite3935-2"
         in2="result2"
         operator="in" />
    </filter>
  </defs>
  <sodipodi:namedview
     id="base"
     pagecolor="#ffffff"
     bordercolor="#666666"
     borderopacity="1.0"
     inkscape:pageopacity="0.0"
     inkscape:pageshadow="2"
     inkscape:zoom="2.191254"
     inkscape:cx="366.18969"
     inkscape:cy="126.36899"
     inkscape:current-layer="layer2"
     inkscape:document-units="px"
     showgrid="false"
     inkscape:window-width="1920"
     inkscape:window-height="1017"
     inkscape:window-x="-8"
     inkscape:window-y="-8"
     inkscape:window-maximized="1"
     inkscape:snap-midpoints="true"
     inkscape:snap-bbox="true"
     inkscape:snap-bbox-edge-midpoints="true"
     inkscape:bbox-nodes="true"
     inkscape:object-nodes="true" />
  <metadata
     id="metadata2990">
    <rdf:RDF>
      <cc:Work
         rdf:about="">
        <dc:format>image/svg+xml</dc:format>
        <dc:type
           rdf:resource="http://purl.org/dc/dcmitype/StillImage" />
        <dc:title></dc:title>
      </cc:Work>
    </rdf:RDF>
  </metadata>
  <g
     inkscape:groupmode="layer"
     id="layer3"
     inkscape:label="Blotted Paper"
     style="opacity:0.73557691;display:inline"
     sodipodi:insensitive="true">
    <path
       inkscape:connector-curvature="0"
       d="m 22.432387,69.553192 596.652943,0 M 22.432391,170.42554 l 596.652949,0 m -597.411818,-50.42552 596.652948,0 M 21.673522,20.453672 l 596.652948,0 0,199.092688 -596.652948,0 z"
       style="fill:#fbf2dc;fill-opacity:0.57647059;stroke:#000000;stroke-width:3;stroke-linecap:butt;stroke-linejoin:miter;stroke-miterlimit:4;stroke-opacity:1;stroke-dasharray:none;filter:url(#filter3921-5)"
       id="path3823" />
  </g>
  <g
     id="layer1"
     inkscape:label="Rules"
     inkscape:groupmode="layer"
     transform="translate(0,-240)"
     style="display:inline"
     sodipodi:insensitive="true">
    <path
       id="path3781-7"
       style="fill:#f4e6b5;fill-opacity:0.31382979;stroke:#b4b4b4;stroke-width:3;stroke-linecap:butt;stroke-linejoin:miter;stroke-miterlimit:4;stroke-opacity:1;stroke-dasharray:none"
       d="m 22.432388,309.55319 596.652952,0 m -596.652948,100.87235 596.652958,0 m -597.411827,-50.42552 596.652957,0 m -596.652957,-99.54635 596.652957,0 0,199.09269 -596.652957,0 z"
       inkscape:connector-curvature="0" />
    <path
       style="fill:none;stroke:#b4b4b4;stroke-width:7.00039434;stroke-linecap:butt;stroke-linejoin:miter;stroke-miterlimit:4;stroke-opacity:1;stroke-dasharray:none"
       d="m 17.774,258.95339 0,202.09027"
       id="path3821"
       inkscape:connector-curvature="0" />
  </g>
  <g
     inkscape:groupmode="layer"
     id="layer2"
     inkscape:label="Text"
     style="display:inline">
    <g
       id="g4105">
      <path
         sodipodi:nodetypes="ccccccczzzzzzzzccccccccccccczccc"
         inkscape:connector-curvature="0"
         id="path4027"
         d="m 121.51016,38.677987 c -2.89784,-6.606826 -11.04619,-10.586161 -17.69948,-6.95487 -11.027439,5.712129 -18.79365,17.562325 -20.202169,29.838951 -0.806299,10.681268 11.600619,14.426425 17.399659,21.437765 11.74525,10.754346 23.60601,21.903217 38.45678,28.241947 11.19259,4.88043 18.78706,15.4984 21.36381,27.2435 4.46409,16.59103 2.53142,37.16015 -11.70741,48.56872 -16.12903,12.2176 -36.16858,12.06269 -56.879232,4.72755 -20.710651,-7.33514 -44.485682,-34.92603 -50.253496,-50.55441 -5.767814,-15.62838 0.891243,-17.25479 7.125185,-22.80109 6.233942,-5.5463 12.43568,-8.41766 20.248587,-4.18445 7.812907,4.23321 16.625778,8.31839 24.414696,13.90052 7.78892,5.58213 1.069472,16.84303 -8.277425,18.92718 -9.346897,2.08415 -6.837558,17.68225 0.331582,22.41802 7.16914,4.73577 16.161213,4.92182 24.896263,6.12279 8.73505,1.20097 18.56621,-0.2488 26.32387,-5.35975 8.49855,-2.6208 4.09523,-12.54574 5.77295,-18.96996 1.64003,-7.75426 -0.11857,-16.34214 -6.52388,-21.50579 C 113.70784,110.5864 89.453924,93.033072 69.51187,70.954799 62.748127,63.826913 59.761479,52.019272 66.269938,43.750523 78.34745,27.907131 100.50428,23.037447 119.34955,26.481607 c 14.77028,3.732631 27.61995,12.527735 42.16231,16.890966 9.00841,3.685607 9.81554,19.528292 -0.60892,21.745476 -10.26013,-0.0095 -11.93087,-14.176383 -21.18634,-16.199879 -9.43376,0.13814 -9.86328,12.241464 -10.20897,19.256476 -0.46575,31.061716 -4.99239,61.871814 -7.37935,92.813154 -1.77494,16.15521 -1.94693,32.41877 -3.01278,48.60976 0.78972,9.09744 -15.92835,7.23757 -13.73835,-1.29431 3.58733,-30.57826 9.38827,-64.03098 13.33696,-91.41701 3.94869,-27.386026 7.30717,-48.577793 9.44484,-73.035338 2.35098,-7.959082 4.77709,10.209727 -1.04695,3.247963 -2.24501,-2.532888 -3.93359,-5.493874 -5.60184,-8.420878 z"
         style="font-size:201.86978149px;font-style:normal;font-variant:normal;font-weight:normal;font-stretch:normal;line-height:125%;letter-spacing:0px;word-spacing:0px;fill:#000000;fill-opacity:1;stroke:none;font-family:Segoe Print;-inkscape-font-specification:Segoe Print" />
      <path
         inkscape:connector-curvature="0"
         id="path4029"
         d="m 239.45651,126.2927 c -3.22038,5.3974 -4.0473,12.00414 -6.11299,17.93482 -3.02953,9.84485 -5.8609,19.77886 -6.90069,30.06559 -1.03849,8.85971 -5.84195,16.72915 -6.69625,25.63807 -0.39804,7.96077 -9.864,0.44472 -13.02569,-1.81962 -11.55107,-9.17426 -17.16555,-23.79613 -18.69285,-38.11623 -3.042,-20.97068 -2.78116,-42.25379 -2.1341,-63.373067 0.73592,-5.191091 2.42281,-12.119684 8.18657,-13.649755 6.51567,0.06775 4.85129,8.867228 8.28276,12.192086 5.3129,4.877546 3.39043,12.388226 -0.61086,17.385656 -4.20984,6.75742 -2.07266,14.95791 -1.7833,22.39693 1.47224,12.33496 3.34653,24.79649 7.56096,36.52552 3.26994,6.72933 5.61638,-4.74582 7.13525,-7.45223 6.90539,-18.58352 12.80701,-37.52198 19.65041,-56.12833 2.12913,-5.70314 3.37614,-11.940959 7.1538,-16.8548 7.28002,-0.139168 9.07837,7.347315 7.24035,13.17475 -0.49341,20.76115 4.80541,41.318 12.72156,60.37908 1.82677,6.61639 5.76228,2.47168 6.0425,-2.21566 5.1458,-20.75026 8.21097,-42.0416 15.07196,-62.356 1.92857,-5.726466 -1.57533,-11.015581 -4.33908,-15.708262 3.32187,-4.006537 10.70874,-3.039751 15.74121,-4.113682 7.86347,0.666748 5.72319,12.364812 2.47907,17.033764 -7.53402,18.35359 -12.09911,37.80471 -15.74119,57.25746 -1.79114,9.84761 -1.54513,19.90521 -2.73728,29.80637 -1.22476,5.79312 -7.92302,11.20692 -13.83888,8.17204 -9.28249,-4.17249 -11.58807,-15.12219 -14.38363,-23.90137 -4.08338,-13.9264 -6.82241,-28.18982 -10.26961,-42.27313 z"
         style="font-size:201.86978149px;font-style:normal;font-variant:normal;font-weight:normal;font-stretch:normal;line-height:125%;letter-spacing:0px;word-spacing:0px;fill:#000000;fill-opacity:1;stroke:none;font-family:Segoe Print;-inkscape-font-specification:Segoe Print" />
      <path
         inkscape:connector-curvature="0"
         id="path4031"
         d="m 370.42129,117.19225 c -6.76417,15.83002 -14.32425,32.32309 -27.9645,43.42417 -5.49489,4.6045 -13.47036,6.4684 -20.02827,2.96158 -6.14307,-2.87456 -9.74964,-9.46002 -11.54141,-15.73562 -2.79549,-16.80356 1.49135,-33.84064 6.28936,-49.879207 6.07448,-17.982582 12.59039,-36.195744 23.35538,-51.981417 5.62803,-7.854106 13.61474,-16.182636 24.04555,-15.869981 6.19451,1.23996 7.90543,8.139861 10.36144,13.021799 5.07508,3.771741 10.17895,-4.054064 15.42078,-4.654708 4.59716,2.266645 -2.08189,9.439822 -2.68799,13.35952 -2.78849,5.426952 -3.93654,11.376865 -3.73403,17.452716 -0.86565,18.03009 -1.2322,36.113768 0.34295,54.116868 0.71452,6.59829 0.0694,13.89988 3.70868,19.74914 4.14062,4.53985 9.30273,-2.78943 13.37807,-4.49365 6.95268,-4.96746 1.33394,5.80665 0.20982,8.5372 -3.18098,5.95857 -4.93624,13.47896 -10.97562,17.27876 -5.82187,2.8575 -10.30405,-3.75969 -12.28871,-8.38119 -5.4603,-12.16957 -6.80187,-25.75288 -7.8915,-38.90598 z m -9.7815,-67.291598 c -7.39832,1.227873 -11.34998,8.677398 -14.8634,14.564736 -8.12606,15.7898 -14.19655,32.773809 -17.28086,50.284382 -1.24442,8.99891 -2.19652,18.66571 1.34118,27.25739 2.77047,5.9716 10.0358,1.90467 12.83552,-1.87764 8.97578,-10.60979 14.96837,-23.40564 20.22061,-36.17338 5.7119,-15.0645 9.12424,-31.96121 4.72907,-47.812094 -0.98678,-3.102583 -3.25057,-6.63154 -6.98212,-6.243394 z"
         style="font-size:201.86978149px;font-style:normal;font-variant:normal;font-weight:normal;font-stretch:normal;line-height:125%;letter-spacing:0px;word-spacing:0px;fill:#000000;fill-opacity:1;stroke:none;font-family:Segoe Print;-inkscape-font-specification:Segoe Print" />
      <path
         sodipodi:nodetypes="cccccccccccccccccccc"
         inkscape:connector-curvature="0"
         id="path4033"
         d="m 435.32776,153.07544 c 4.49865,-14.23527 8.71565,-28.68674 15.82216,-41.90303 5.2766,-9.74457 10.5459,-20.287483 19.96883,-26.66887 5.60645,-3.915342 14.0629,-2.560895 17.71275,3.36734 3.85637,5.55201 10.09134,9.250783 6.96222,15.50072 2.19349,-1.09976 -8.80603,5.28711 -9.70536,6.91724 -2.7596,1.4863 -9.7021,8.86716 -10.5932,2.74826 -0.89412,-3.30087 3.34254,-10.2166 -0.48198,-11.20693 -5.98608,2.12279 -9.21109,8.23677 -12.59042,13.22288 -13.74679,22.31205 -21.85251,47.92287 -23.90656,74.02591 -0.56438,4.62793 -1.06436,11.34884 -6.68739,12.50542 -6.28111,1.13513 -6.86092,-7.21784 -7.5646,-11.571 -1.7912,-17.99611 -0.68181,-36.11457 -0.34143,-54.15506 0.12935,-11.21397 1.72686,-22.35803 2.13452,-33.5388 -1.63802,-5.096116 -3.60698,-4.495019 -6.82001,-8.1906 2.1504,-3.314365 3.53772,-4.917235 7.12591,-6.456887 3.43592,-0.797338 7.43004,-4.483888 9.66725,-5.190206 -0.52919,2.80267 6.68073,6.392106 4.97263,10.845111 -0.82138,8.990202 -3.4553,17.720922 -3.87317,26.765152 -1.35827,10.92078 -1.70534,21.98178 -1.80215,32.98335 z"
         style="font-size:201.86978149px;font-style:normal;font-variant:normal;font-weight:normal;font-stretch:normal;line-height:125%;letter-spacing:0px;word-spacing:0px;fill:#000000;fill-opacity:1;stroke:none;font-family:Segoe Print;-inkscape-font-specification:Segoe Print" />
      <path
         inkscape:connector-curvature="0"
         id="path4031-7"
         d="m 566.24316,117.19225 c -6.76417,15.83002 -14.32425,32.32309 -27.9645,43.42417 -5.49489,4.6045 -13.47036,6.4684 -20.02827,2.96158 -6.14307,-2.87456 -9.74964,-9.46002 -11.54141,-15.73562 -2.79549,-16.80356 1.49135,-33.84064 6.28936,-49.879203 6.07448,-17.98258 12.59039,-36.19574 23.35538,-51.981418 5.62803,-7.854106 13.61474,-16.182636 24.04555,-15.869981 6.19451,1.23996 7.90543,8.139861 10.36144,13.021799 5.07508,3.771741 10.17895,-4.054064 15.42078,-4.654708 4.59716,2.266645 -2.08189,9.439822 -2.68799,13.35952 -2.78849,5.426948 -3.93654,11.376868 -3.73403,17.452718 -0.86565,18.03009 -1.2322,36.113763 0.34295,54.116863 0.71452,6.59829 0.0694,13.89988 3.70868,19.74914 4.14062,4.53985 9.30273,-2.78943 13.37807,-4.49365 6.95268,-4.96746 1.33394,5.80665 0.20982,8.5372 -3.18098,5.95857 -4.93624,13.47896 -10.97562,17.27876 -5.82187,2.8575 -10.30405,-3.75969 -12.28871,-8.38119 -5.4603,-12.16957 -6.80187,-25.75288 -7.8915,-38.90598 z m -9.7815,-67.291595 c -7.39832,1.227873 -11.34998,8.677402 -14.8634,14.564732 -8.12606,15.7898 -14.19655,32.77381 -17.28086,50.284383 -1.24442,8.99891 -2.19652,18.66571 1.34118,27.25739 2.77047,5.9716 10.0358,1.90467 12.83552,-1.87764 8.97578,-10.60979 14.96837,-23.40564 20.22061,-36.17338 5.7119,-15.064493 9.12424,-31.961203 4.72907,-47.812093 -0.98678,-3.102581 -3.25057,-6.631538 -6.98212,-6.243392 z"
         style="font-size:201.86978149px;font-style:normal;font-variant:normal;font-weight:normal;font-stretch:normal;line-height:125%;letter-spacing:0px;word-spacing:0px;fill:#000000;fill-opacity:1;stroke:none;display:inline;font-family:Segoe Print;-inkscape-font-specification:Segoe Print" />
    </g>
  </g>
</svg>
